# Blender v2.57 (sub 1) OBJ File: 'coin.blend'
# www.blender.org
mtllib coin.mtl
o Cylinder
v 0.000000 -0.100000 -1.000000
v 0.382683 -0.100000 -0.923880
v 0.707107 -0.100000 -0.707107
v 0.923880 -0.100000 -0.382683
v 1.000000 -0.100000 0.000000
v 0.923880 -0.100000 0.382684
v 0.707107 -0.100000 0.707107
v 0.382683 -0.100000 0.923880
v 0.000000 -0.100000 1.000000
v -0.382683 -0.100000 0.923880
v -0.707107 -0.100000 0.707107
v -0.923880 -0.100000 0.382684
v -1.000000 -0.100000 -0.000000
v -0.923879 -0.100000 -0.382684
v -0.707107 -0.100000 -0.707107
v -0.382683 -0.100000 -0.923880
v 0.000001 0.100000 -1.000000
v 0.382684 0.100000 -0.923879
v 0.707107 0.100000 -0.707106
v 0.923880 0.100000 -0.382682
v 1.000000 0.100000 0.000001
v 0.923879 0.100000 0.382685
v 0.707106 0.100000 0.707108
v 0.382682 0.100000 0.923880
v -0.000002 0.100000 1.000000
v -0.382685 0.100000 0.923879
v -0.707108 0.100000 0.707105
v -0.923880 0.100000 0.382681
v -1.000000 0.100000 -0.000003
v -0.923878 0.100000 -0.382686
v -0.707105 0.100000 -0.707109
v -0.382681 0.100000 -0.923881
v 0.000000 -0.100000 0.000000
v 0.000000 0.100000 -0.000000
vt 0.504825 0.755618
vt 0.502466 0.516616
vt 0.674243 0.533869
vt 0.499826 0.254310
vt 0.324949 0.029823
vt 0.501508 0.011677
vt 0.820227 0.584881
vt 0.175014 0.082146
vt 0.918194 0.661886
vt 0.074528 0.160679
vt 0.953229 0.753161
vt 0.038790 0.253466
vt 0.919999 0.844810
vt 0.073241 0.346382
vt 0.823563 0.922881
vt 0.172635 0.425281
vt 0.678602 0.975487
vt 0.321842 0.478151
vt 0.507184 0.994620
vt 0.498145 0.496943
vt 0.335408 0.977367
vt 0.674703 0.478797
vt 0.189424 0.926355
vt 0.824639 0.426474
vt 0.091458 0.849350
vt 0.925124 0.347941
vt 0.056423 0.758075
vt 0.960862 0.255154
vt 0.089653 0.666426
vt 0.926411 0.162238
vt 0.186090 0.588355
vt 0.827016 0.083339
vt 0.331050 0.535749
vt 0.677809 0.030469
vt 0.061608 0.747893
vt 0.049087 0.742154
vt 0.056972 0.737389
vt 0.069493 0.743128
vt 0.079426 0.723818
vt 0.091947 0.729556
vt 0.113031 0.703507
vt 0.125552 0.709246
vt 0.152671 0.679549
vt 0.165192 0.685288
vt 0.140150 0.673810
vt 0.100510 0.697768
vt 0.066905 0.718079
vt 0.044451 0.731650
vt 0.036566 0.736416
vt 0.224066 0.636398
vt 0.236587 0.642137
vt 0.244472 0.637371
vt 0.231951 0.631633
vt 0.266926 0.623800
vt 0.254405 0.618062
vt 0.300532 0.603490
vt 0.288010 0.597751
vt 0.275489 0.592012
vt 0.235849 0.615970
vt 0.248370 0.621709
vt 0.196209 0.639928
vt 0.208731 0.645667
vt 0.162604 0.660239
vt 0.175125 0.665978
vt 0.056971 0.737389
vn 0.000000 -1.000000 0.000000
vn -0.000000 1.000000 -0.000000
vn 0.195091 0.000000 -0.980785
vn 0.555571 0.000000 -0.831469
vn 0.831470 -0.000000 -0.555570
vn 0.980785 -0.000000 -0.195090
vn 0.980785 0.000000 0.195091
vn 0.831469 0.000000 0.555571
vn 0.555570 0.000000 0.831470
vn 0.195089 0.000000 0.980785
vn -0.195091 0.000000 0.980785
vn -0.555571 0.000000 0.831469
vn -0.831470 0.000000 0.555569
vn -0.980786 0.000000 0.195089
vn -0.980785 -0.000000 -0.195092
vn -0.831469 -0.000000 -0.555571
vn -0.555569 0.000000 -0.831471
vn -0.195089 -0.000001 -0.980785
usemtl Material.001_greek_gold_coin_phili
s off
f 33/1/1 1/2/1 2/3/1
f 34/4/2 18/5/2 17/6/2
f 33/1/1 2/3/1 3/7/1
f 34/4/2 19/8/2 18/5/2
f 33/1/1 3/7/1 4/9/1
f 34/4/2 20/10/2 19/8/2
f 33/1/1 4/9/1 5/11/1
f 34/4/2 21/12/2 20/10/2
f 33/1/1 5/11/1 6/13/1
f 34/4/2 22/14/2 21/12/2
f 33/1/1 6/13/1 7/15/1
f 34/4/2 23/16/2 22/14/2
f 33/1/1 7/15/1 8/17/1
f 34/4/2 24/18/2 23/16/2
f 33/1/1 8/17/1 9/19/1
f 34/4/2 25/20/2 24/18/2
f 33/1/1 9/19/1 10/21/1
f 34/4/2 26/22/2 25/20/2
f 33/1/1 10/21/1 11/23/1
f 34/4/2 27/24/2 26/22/2
f 33/1/1 11/23/1 12/25/1
f 34/4/2 28/26/2 27/24/2
f 33/1/1 12/25/1 13/27/1
f 34/4/2 29/28/2 28/26/2
f 33/1/1 13/27/1 14/29/1
f 34/4/2 30/30/2 29/28/2
f 33/1/1 14/29/1 15/31/1
f 34/4/2 31/32/2 30/30/2
f 33/1/1 15/31/1 16/33/1
f 34/4/2 32/34/2 31/32/2
f 16/33/1 1/2/1 33/1/1
f 34/4/2 17/6/2 32/34/2
f 1/35/3 17/36/3 18/37/3
f 1/35/3 18/37/3 2/38/3
f 2/38/4 18/37/4 19/39/4
f 2/38/4 19/39/4 3/40/4
f 3/40/5 19/39/5 20/41/5
f 3/40/5 20/41/5 4/42/5
f 4/42/6 20/41/6 21/43/6
f 4/42/6 21/43/6 5/44/6
f 5/45/7 21/43/7 22/41/7
f 5/45/7 22/41/7 6/46/7
f 6/46/8 22/41/8 23/39/8
f 6/46/8 23/39/8 7/47/8
f 7/47/9 23/39/9 24/37/9
f 7/47/9 24/37/9 8/48/9
f 8/48/10 24/37/10 25/36/10
f 8/48/10 25/36/10 9/49/10
f 9/50/11 25/51/11 26/52/11
f 9/50/11 26/52/11 10/53/11
f 10/53/12 26/52/12 27/54/12
f 10/53/12 27/54/12 11/55/12
f 11/55/13 27/54/13 28/56/13
f 11/55/13 28/56/13 12/57/13
f 12/57/14 28/58/14 29/59/14
f 12/57/14 29/59/14 13/60/14
f 13/60/15 29/59/15 30/61/15
f 13/60/15 30/61/15 14/62/15
f 14/62/16 30/61/16 31/63/16
f 14/62/16 31/63/16 15/64/16
f 15/64/17 31/63/17 32/45/17
f 15/64/17 32/45/17 16/43/17
f 17/36/18 1/35/18 16/38/18
f 17/36/18 16/38/18 32/65/18
