# Blender v2.58 (sub 1) OBJ File: 'transparent_white_cyclinder.blend'
# www.blender.org
mtllib transparent_white_cyclinder.mtl
o Tube.001
v 0.707107 -50.000000 -0.707107
v 0.831470 -50.000000 -0.555570
v 0.923880 -50.000000 -0.382683
v 0.980785 -50.000000 -0.195090
v 1.000000 -50.000000 -0.000000
v 0.980785 -50.000000 0.195090
v 0.923880 -50.000000 0.382683
v 0.831470 -50.000000 0.555570
v 0.707107 -50.000000 0.707107
v 0.555570 -50.000000 0.831470
v 0.382683 -50.000000 0.923880
v 0.195090 -50.000000 0.980785
v -0.000000 -50.000000 1.000000
v -0.195091 -50.000000 0.980785
v -0.382684 -50.000000 0.923879
v -0.555571 -50.000000 0.831469
v -0.707107 -50.000000 0.707106
v -0.831470 -50.000000 0.555570
v -0.923880 -50.000000 0.382683
v -0.980785 -50.000000 0.195089
v -1.000000 -50.000000 -0.000001
v -0.980785 -50.000000 -0.195091
v -0.923879 -50.000000 -0.382684
v -0.831469 -50.000000 -0.555571
v -0.707106 -50.000000 -0.707108
v -0.555569 -50.000000 -0.831470
v -0.382682 -50.000000 -0.923880
v -0.195089 -50.000000 -0.980786
v 0.000001 -50.000000 -1.000000
v 0.195092 -50.000000 -0.980785
v 0.382685 -50.000000 -0.923879
v 0.555572 -50.000000 -0.831469
v 0.707108 50.000000 -0.707105
v 0.831471 50.000000 -0.555569
v 0.923880 50.000000 -0.382682
v 0.980786 50.000000 -0.195088
v 1.000000 50.000000 0.000002
v 0.980785 50.000000 0.195092
v 0.923879 50.000000 0.382685
v 0.831469 50.000000 0.555571
v 0.707106 50.000000 0.707107
v 0.555570 50.000000 0.831470
v 0.382683 50.000000 0.923880
v 0.195091 50.000000 0.980785
v 0.000001 50.000000 1.000000
v -0.195089 50.000000 0.980786
v -0.382682 50.000000 0.923880
v -0.555568 50.000000 0.831471
v -0.707105 50.000000 0.707108
v -0.831468 50.000000 0.555573
v -0.923878 50.000000 0.382686
v -0.980784 50.000000 0.195094
v -1.000000 50.000000 0.000004
v -0.980786 50.000000 -0.195086
v -0.923882 50.000000 -0.382679
v -0.831473 50.000000 -0.555566
v -0.707111 50.000000 -0.707103
v -0.555575 50.000000 -0.831466
v -0.382689 50.000000 -0.923877
v -0.195097 50.000000 -0.980784
v -0.000007 50.000000 -1.000000
v 0.195083 50.000000 -0.980787
v 0.382676 50.000000 -0.923883
v 0.555563 50.000000 -0.831474
vt 0.744533 0.067884
vt 0.774754 0.036632
vt 0.775753 0.039969
vt 0.771055 0.012697
vt 0.776203 0.043648
vt 0.769976 0.060511
vt 0.776079 0.047537
vt 0.771088 0.051104
vt 0.775378 0.051494
vt 0.775519 0.050812
vt 0.774118 0.055368
vt 0.777421 0.045319
vt 0.772339 0.059007
vt 0.778621 0.039664
vt 0.770103 0.062264
vt 0.779058 0.034069
vt 0.764668 0.060923
vt 0.778701 0.028760
vt 0.764610 0.067110
vt 0.748820 0.057286
vt 0.761569 0.068487
vt 0.775645 0.019878
vt 0.758493 0.069073
vt 0.748698 0.022443
vt 0.755511 0.068839
vt 0.769886 0.014537
vt 0.752745 0.067793
vt 0.768936 0.006846
vt 0.750311 0.065979
vt 0.762358 0.013667
vt 0.748309 0.063474
vt 0.758320 0.014981
vt 0.746818 0.060386
vt 0.754324 0.017392
vt 0.745894 0.056846
vt 0.750536 0.020788
vt 0.745568 0.053002
vt 0.747107 0.025016
vt 0.745844 0.049011
vt 0.744169 0.029892
vt 0.746705 0.045032
vt 0.741828 0.035213
vt 0.748106 0.041218
vt 0.740165 0.040763
vt 0.742454 0.068527
vt 0.739228 0.046327
vt 0.752270 0.034640
vt 0.739039 0.051699
vt 0.754864 0.032110
vt 0.739592 0.056684
vt 0.757673 0.030209
vt 0.740855 0.061110
vt 0.765164 0.011525
vt 0.742775 0.064827
vt 0.763678 0.056179
vt 0.772562 0.073013
vt 0.766281 0.063538
vt 0.748270 0.069669
vt 0.768961 0.029754
vt 0.776085 0.004715
vt 0.776628 0.010095
vt 0.755296 0.070573
vt 0.773248 0.033754
vt 0.759086 0.069484
vn 0.773011 0.000000 -0.634393
vn 0.881922 0.000000 -0.471395
vn 0.956940 0.000000 -0.290285
vn 0.995185 -0.000000 -0.098015
vn 0.995185 0.000000 0.098018
vn 0.956940 -0.000000 0.290285
vn 0.881921 -0.000000 0.471398
vn 0.773011 0.000000 0.634393
vn 0.634393 0.000000 0.773011
vn 0.471396 0.000000 0.881921
vn 0.290285 0.000000 0.956940
vn 0.098017 0.000000 0.995185
vn -0.098017 -0.000000 0.995185
vn -0.290284 -0.000000 0.956941
vn -0.471397 0.000000 0.881921
vn -0.634392 0.000000 0.773011
vn -0.773010 0.000000 0.634394
vn -0.881921 -0.000000 0.471397
vn -0.956940 0.000000 0.290286
vn -0.995185 0.000000 0.098019
vn -0.995185 0.000000 -0.098016
vn -0.956941 0.000000 -0.290283
vn -0.881922 -0.000000 -0.471395
vn -0.773012 -0.000000 -0.634392
vn -0.634395 -0.000000 -0.773009
vn -0.471399 -0.000000 -0.881920
vn -0.290287 0.000000 -0.956940
vn -0.098020 0.000000 -0.995184
vn 0.098014 -0.000000 -0.995185
vn 0.290281 0.000000 -0.956941
vn 0.471394 0.000000 -0.881923
vn 0.634393 0.000000 -0.773011
usemtl None_textures.png
s off
f 1/1/1 33/2/1 34/3/1
f 1/1/1 34/3/1 2/4/1
f 2/4/2 34/3/2 35/5/2
f 2/4/2 35/5/2 3/6/2
f 3/6/3 35/5/3 36/7/3
f 3/6/3 36/7/3 4/8/3
f 4/8/4 36/7/4 37/9/4
f 4/8/4 37/9/4 5/10/4
f 5/10/5 37/9/5 38/11/5
f 5/10/5 38/11/5 6/12/5
f 6/12/6 38/11/6 39/13/6
f 6/12/6 39/13/6 7/14/6
f 7/14/7 39/13/7 40/15/7
f 7/14/7 40/15/7 8/16/7
f 8/16/8 40/15/8 41/17/8
f 8/16/8 41/17/8 9/18/8
f 9/18/9 41/17/9 42/19/9
f 9/18/9 42/19/9 10/20/9
f 10/20/10 42/19/10 43/21/10
f 10/20/10 43/21/10 11/22/10
f 11/22/11 43/21/11 44/23/11
f 11/22/11 44/23/11 12/24/11
f 12/24/12 44/23/12 45/25/12
f 12/24/12 45/25/12 13/26/12
f 13/26/13 45/25/13 46/27/13
f 13/26/13 46/27/13 14/28/13
f 14/28/14 46/27/14 47/29/14
f 14/28/14 47/29/14 15/30/14
f 15/30/15 47/29/15 48/31/15
f 15/30/15 48/31/15 16/32/15
f 16/32/16 48/31/16 49/33/16
f 16/32/16 49/33/16 17/34/16
f 17/34/17 49/33/17 50/35/17
f 17/34/17 50/35/17 18/36/17
f 18/36/18 50/35/18 51/37/18
f 18/36/18 51/37/18 19/38/18
f 19/38/19 51/37/19 52/39/19
f 19/38/19 52/39/19 20/40/19
f 20/40/20 52/39/20 53/41/20
f 20/40/20 53/41/20 21/42/20
f 21/42/21 53/41/21 54/43/21
f 21/42/21 54/43/21 22/44/21
f 22/44/22 54/43/22 55/45/22
f 22/44/22 55/45/22 23/46/22
f 23/46/23 55/45/23 56/47/23
f 23/46/23 56/47/23 24/48/23
f 24/48/24 56/47/24 57/49/24
f 24/48/24 57/49/24 25/50/24
f 25/50/25 57/49/25 58/51/25
f 25/50/25 58/51/25 26/52/25
f 26/52/26 58/51/26 59/53/26
f 26/52/26 59/53/26 27/54/26
f 27/54/27 59/53/27 60/55/27
f 27/54/27 60/55/27 28/56/27
f 28/56/28 60/55/28 61/57/28
f 28/56/28 61/57/28 29/58/28
f 29/58/29 61/57/29 62/59/29
f 29/58/29 62/59/29 30/60/29
f 30/60/30 62/59/30 63/61/30
f 30/60/30 63/61/30 31/62/30
f 31/62/31 63/61/31 64/63/31
f 31/62/31 64/63/31 32/64/31
f 33/2/32 1/1/32 32/64/32
f 33/2/32 32/64/32 64/63/32
