#
# object water
#
v  -404.6481 -66.2727 2509.4805
v  -404.6481 -66.2727 3513.2725
v  624.4572 -66.2727 2509.4805
v  624.4572 -66.2727 3513.2725
v  -404.6481 -66.2727 1505.6882
v  624.4572 -66.2727 1505.6882
v  -404.6481 -66.2727 501.8961
v  624.4572 -66.2727 501.8961
v  -404.6481 -66.2727 -501.8961
v  624.4572 -66.2727 -501.8961
v  -404.6481 -66.2727 -1505.6882
v  624.4572 -66.2727 -1505.6882
v  -404.6481 -66.2727 -2509.4805
v  624.4572 -66.2727 -2509.4805
v  -404.6481 -66.2727 -3513.2725
v  624.4572 -66.2727 -3513.2725

vn 0.0000 1.0000 -0.0000

vt 0.3202 0.9906
vt 0.3202 0.7571
vt 0.5537 0.9906
vt 0.5537 0.7571

g water
f 1/1/1 2/2/1 3/3/1 
f 4/4/1 3/3/1 2/2/1 
f 5/1/1 1/2/1 6/3/1 
f 3/4/1 6/3/1 1/2/1 
f 7/1/1 5/2/1 8/3/1 
f 6/4/1 8/3/1 5/2/1 
f 9/1/1 7/2/1 10/3/1 
f 8/4/1 10/3/1 7/2/1 
f 11/1/1 9/2/1 12/3/1 
f 10/4/1 12/3/1 9/2/1 
f 13/1/1 11/2/1 14/3/1 
f 12/4/1 14/3/1 11/2/1 
f 15/1/1 13/2/1 16/3/1 
f 14/4/1 16/3/1 13/2/1 

