v -0.5 -0.235858 -1.25
v -0.388889 -0.253178 -1.25
v -0.277778 -0.253178 -1.25
v -0.166667 -0.235858 -1.25
v -0.055556 -0.218537 -1.25
v 0.055556 -0.218537 -1.25
v 0.166667 -0.235858 -1.25
v 0.277778 -0.253178 -1.25
v 0.388889 -0.253178 -1.25
v 0.5 -0.235858 -1.25
v -0.5 -0.269319 -0.972222
v -0.388889 -0.286639 -0.972222
v -0.277778 -0.286639 -0.972222
v -0.166667 -0.269319 -0.972222
v -0.055556 -0.251998 -0.972222
v 0.055556 -0.251998 -0.972222
v 0.166667 -0.269319 -0.972222
v 0.277778 -0.286639 -0.972222
v 0.388889 -0.286639 -0.972222
v 0.5 -0.269319 -0.972222
v -0.5 -0.230681 -0.694444
v -0.388889 -0.248002 -0.694444
v -0.277778 -0.248002 -0.694444
v -0.166667 -0.230681 -0.694444
v -0.055556 -0.213361 -0.694444
v 0.055556 -0.213361 -0.694444
v 0.166667 -0.230681 -0.694444
v 0.277778 -0.248002 -0.694444
v 0.388889 -0.248002 -0.694444
v 0.5 -0.230681 -0.694444
v -0.5 -0.264142 -0.416667
v -0.388889 -0.281463 -0.416667
v -0.277778 -0.281463 -0.416667
v -0.166667 -0.264142 -0.416667
v -0.055556 -0.246822 -0.416667
v 0.055556 -0.246822 -0.416667
v 0.166667 -0.264142 -0.416667
v 0.277778 -0.281463 -0.416667
v 0.388889 -0.281463 -0.416667
v 0.5 -0.264142 -0.416667
v -0.5 -0.244824 -0.138889
v -0.388889 -0.262144 -0.138889
v -0.277778 -0.262144 -0.138889
v -0.166667 -0.244824 -0.138889
v -0.055556 -0.227503 -0.138889
v 0.055556 -0.227503 -0.138889
v 0.166667 -0.244824 -0.138889
v 0.277778 -0.262144 -0.138889
v 0.388889 -0.262144 -0.138889
v 0.5 -0.244824 -0.138889
v -0.5 -0.244824 0.138889
v -0.388889 -0.262144 0.138889
v -0.277778 -0.262144 0.138889
v -0.166667 -0.244824 0.138889
v -0.055556 -0.227503 0.138889
v 0.055556 -0.227503 0.138889
v 0.166667 -0.244824 0.138889
v 0.277778 -0.262144 0.138889
v 0.388889 -0.262144 0.138889
v 0.5 -0.244824 0.138889
v -0.5 -0.264142 0.416667
v -0.388889 -0.281463 0.416667
v -0.277778 -0.281463 0.416667
v -0.166667 -0.264142 0.416667
v -0.055556 -0.246822 0.416667
v 0.055556 -0.246822 0.416667
v 0.166667 -0.264142 0.416667
v 0.277778 -0.281463 0.416667
v 0.388889 -0.281463 0.416667
v 0.5 -0.264142 0.416667
v -0.5 -0.230681 0.694444
v -0.388889 -0.248002 0.694444
v -0.277778 -0.248002 0.694444
v -0.166667 -0.230681 0.694444
v -0.055556 -0.213361 0.694444
v 0.055556 -0.213361 0.694444
v 0.166667 -0.230681 0.694444
v 0.277778 -0.248002 0.694444
v 0.388889 -0.248002 0.694444
v 0.5 -0.230681 0.694444
v -0.5 -0.269319 0.972222
v -0.388889 -0.286639 0.972222
v -0.277778 -0.286639 0.972222
v -0.166667 -0.269319 0.972222
v -0.055556 -0.251998 0.972222
v 0.055556 -0.251998 0.972222
v 0.166667 -0.269319 0.972222
v 0.277778 -0.286639 0.972222
v 0.388889 -0.286639 0.972222
v 0.5 -0.269319 0.972222
v -0.5 -0.235858 1.25
v -0.388889 -0.253178 1.25
v -0.277778 -0.253178 1.25
v -0.166667 -0.235858 1.25
v -0.055556 -0.218537 1.25
v 0.055556 -0.218537 1.25
v 0.166667 -0.235858 1.25
v 0.277778 -0.253178 1.25
v 0.388889 -0.253178 1.25
v 0.5 -0.235858 1.25
vt 0.0 1.0
vt 0.034722 1.0
vt 0.069444 1.0
vt 0.104167 1.0
vt 0.138889 1.0
vt 0.173611 1.0
vt 0.208333 1.0
vt 0.243056 1.0
vt 0.277778 1.0
vt 0.3125 1.0
vt 0.0 0.947917
vt 0.034722 0.947917
vt 0.069444 0.947917
vt 0.104167 0.947917
vt 0.138889 0.947917
vt 0.173611 0.947917
vt 0.208333 0.947917
vt 0.243056 0.947917
vt 0.277778 0.947917
vt 0.3125 0.947917
vt 0.0 0.895833
vt 0.034722 0.895833
vt 0.069444 0.895833
vt 0.104167 0.895833
vt 0.138889 0.895833
vt 0.173611 0.895833
vt 0.208333 0.895833
vt 0.243056 0.895833
vt 0.277778 0.895833
vt 0.3125 0.895833
vt 0.0 0.84375
vt 0.034722 0.84375
vt 0.069444 0.84375
vt 0.104167 0.84375
vt 0.138889 0.84375
vt 0.173611 0.84375
vt 0.208333 0.84375
vt 0.243056 0.84375
vt 0.277778 0.84375
vt 0.3125 0.84375
vt 0.0 0.791667
vt 0.034722 0.791667
vt 0.069444 0.791667
vt 0.104167 0.791667
vt 0.138889 0.791667
vt 0.173611 0.791667
vt 0.208333 0.791667
vt 0.243056 0.791667
vt 0.277778 0.791667
vt 0.3125 0.791667
vt 0.0 0.739583
vt 0.034722 0.739583
vt 0.069444 0.739583
vt 0.104167 0.739583
vt 0.138889 0.739583
vt 0.173611 0.739583
vt 0.208333 0.739583
vt 0.243056 0.739583
vt 0.277778 0.739583
vt 0.3125 0.739583
vt 0.0 0.6875
vt 0.034722 0.6875
vt 0.069444 0.6875
vt 0.104167 0.6875
vt 0.138889 0.6875
vt 0.173611 0.6875
vt 0.208333 0.6875
vt 0.243056 0.6875
vt 0.277778 0.6875
vt 0.3125 0.6875
vt 0.0 0.635417
vt 0.034722 0.635417
vt 0.069444 0.635417
vt 0.104167 0.635417
vt 0.138889 0.635417
vt 0.173611 0.635417
vt 0.208333 0.635417
vt 0.243056 0.635417
vt 0.277778 0.635417
vt 0.3125 0.635417
vt 0.0 0.583333
vt 0.034722 0.583333
vt 0.069444 0.583333
vt 0.104167 0.583333
vt 0.138889 0.583333
vt 0.173611 0.583333
vt 0.208333 0.583333
vt 0.243056 0.583333
vt 0.277778 0.583333
vt 0.3125 0.583333
vt 0.0 0.53125
vt 0.034722 0.53125
vt 0.069444 0.53125
vt 0.104167 0.53125
vt 0.138889 0.53125
vt 0.173611 0.53125
vt 0.208333 0.53125
vt 0.243056 0.53125
vt 0.277778 0.53125
vt 0.3125 0.53125
vn -0.152945 -0.981142 -0.118187
vn -0.077152 -0.989864 -0.119237
vn 0.077152 -0.989864 -0.119237
vn 0.152945 -0.981142 -0.118187
vn 0.077152 -0.989864 -0.119237
vn -0.077152 -0.989864 -0.119237
vn -0.152945 -0.981142 -0.118187
vn -0.077152 -0.989864 -0.119237
vn 0.077152 -0.989864 -0.119237
vn 0.152945 -0.981142 -0.118187
vn -0.152945 -0.981142 -0.118187
vn -0.077703 -0.996933 0.009289
vn 0.077703 -0.996933 0.009289
vn 0.154018 -0.988025 0.009206
vn 0.077703 -0.996933 0.009289
vn -0.077703 -0.996933 0.009289
vn -0.154018 -0.988025 0.009206
vn -0.077703 -0.996933 0.009289
vn 0.077703 -0.996933 0.009289
vn 0.154018 -0.988025 0.009206
vn -0.15259 -0.978866 0.136154
vn -0.077703 -0.996933 0.009289
vn 0.077703 -0.996933 0.009289
vn 0.154018 -0.988025 0.009206
vn 0.077703 -0.996933 0.009289
vn -0.077703 -0.996933 0.009289
vn -0.154018 -0.988025 0.009206
vn -0.077703 -0.996933 0.009289
vn 0.077703 -0.996933 0.009289
vn 0.154018 -0.988025 0.009206
vn -0.152945 -0.981142 -0.118187
vn -0.077682 -0.996655 -0.025371
vn 0.077682 -0.996655 -0.025371
vn 0.153976 -0.987755 -0.025144
vn 0.077682 -0.996655 -0.025371
vn -0.077682 -0.996655 -0.025371
vn -0.153976 -0.987755 -0.025144
vn -0.077682 -0.996655 -0.025371
vn 0.077682 -0.996655 -0.025371
vn 0.153976 -0.987755 -0.025144
vn -0.153662 -0.985742 0.068555
vn -0.07766 -0.996378 0.034647
vn 0.07766 -0.996378 0.034647
vn 0.153934 -0.987484 0.034338
vn 0.07766 -0.996378 0.034647
vn -0.07766 -0.996378 0.034647
vn -0.153934 -0.987484 0.034338
vn -0.07766 -0.996378 0.034647
vn 0.07766 -0.996378 0.034647
vn 0.153934 -0.987484 0.034338
vn -0.154024 -0.988067 0.0
vn -0.07766 -0.996378 -0.034647
vn 0.07766 -0.996378 -0.034647
vn 0.153934 -0.987484 -0.034338
vn 0.07766 -0.996378 -0.034647
vn -0.07766 -0.996378 -0.034647
vn -0.153934 -0.987484 -0.034338
vn -0.07766 -0.996378 -0.034647
vn 0.07766 -0.996378 -0.034647
vn 0.153934 -0.987484 -0.034338
vn -0.153662 -0.985742 -0.068555
vn -0.077682 -0.996655 0.025371
vn 0.077682 -0.996655 0.025371
vn 0.153976 -0.987755 0.025144
vn 0.077682 -0.996655 0.025371
vn -0.077682 -0.996655 0.025371
vn -0.153976 -0.987755 0.025144
vn -0.077682 -0.996655 0.025371
vn 0.077682 -0.996655 0.025371
vn 0.153976 -0.987755 0.025144
vn -0.152945 -0.981142 0.118187
vn -0.077703 -0.996933 -0.009289
vn 0.077703 -0.996933 -0.009289
vn 0.154018 -0.988025 -0.009206
vn 0.077703 -0.996933 -0.009289
vn -0.077703 -0.996933 -0.009289
vn -0.154018 -0.988025 -0.009206
vn -0.077703 -0.996933 -0.009289
vn 0.077703 -0.996933 -0.009289
vn 0.154018 -0.988025 -0.009206
vn -0.15259 -0.978866 -0.136154
vn -0.077703 -0.996933 -0.009289
vn 0.077703 -0.996933 -0.009289
vn 0.154018 -0.988025 -0.009206
vn 0.077703 -0.996933 -0.009289
vn -0.077703 -0.996933 -0.009289
vn -0.154018 -0.988025 -0.009206
vn -0.077703 -0.996933 -0.009289
vn 0.077703 -0.996933 -0.009289
vn 0.154018 -0.988025 -0.009206
vn -0.152945 -0.981142 0.118187
vn -0.077152 -0.989864 0.119237
vn 0.077152 -0.989864 0.119237
vn 0.152945 -0.981142 0.118187
vn 0.077152 -0.989864 0.119237
vn -0.077152 -0.989864 0.119237
vn -0.152945 -0.981142 0.118187
vn -0.077152 -0.989864 0.119237
vn 0.077152 -0.989864 0.119237
vn 0.152945 -0.981142 0.118187
f 1/1/1 2/2/2 11/11/11
f 2/2/2 12/12/12 11/11/11
f 2/2/2 3/3/3 12/12/12
f 3/3/3 13/13/13 12/12/12
f 3/3/3 4/4/4 13/13/13
f 4/4/4 14/14/14 13/13/13
f 4/4/4 5/5/5 14/14/14
f 5/5/5 15/15/15 14/14/14
f 5/5/5 6/6/6 15/15/15
f 6/6/6 16/16/16 15/15/15
f 6/6/6 7/7/7 16/16/16
f 7/7/7 17/17/17 16/16/16
f 7/7/7 8/8/8 17/17/17
f 8/8/8 18/18/18 17/17/17
f 8/8/8 9/9/9 18/18/18
f 9/9/9 19/19/19 18/18/18
f 9/9/9 10/10/10 19/19/19
f 10/10/10 20/20/20 19/19/19
f 11/11/11 12/12/12 21/21/21
f 12/12/12 22/22/22 21/21/21
f 12/12/12 13/13/13 22/22/22
f 13/13/13 23/23/23 22/22/22
f 13/13/13 14/14/14 23/23/23
f 14/14/14 24/24/24 23/23/23
f 14/14/14 15/15/15 24/24/24
f 15/15/15 25/25/25 24/24/24
f 15/15/15 16/16/16 25/25/25
f 16/16/16 26/26/26 25/25/25
f 16/16/16 17/17/17 26/26/26
f 17/17/17 27/27/27 26/26/26
f 17/17/17 18/18/18 27/27/27
f 18/18/18 28/28/28 27/27/27
f 18/18/18 19/19/19 28/28/28
f 19/19/19 29/29/29 28/28/28
f 19/19/19 20/20/20 29/29/29
f 20/20/20 30/30/30 29/29/29
f 21/21/21 22/22/22 31/31/31
f 22/22/22 32/32/32 31/31/31
f 22/22/22 23/23/23 32/32/32
f 23/23/23 33/33/33 32/32/32
f 23/23/23 24/24/24 33/33/33
f 24/24/24 34/34/34 33/33/33
f 24/24/24 25/25/25 34/34/34
f 25/25/25 35/35/35 34/34/34
f 25/25/25 26/26/26 35/35/35
f 26/26/26 36/36/36 35/35/35
f 26/26/26 27/27/27 36/36/36
f 27/27/27 37/37/37 36/36/36
f 27/27/27 28/28/28 37/37/37
f 28/28/28 38/38/38 37/37/37
f 28/28/28 29/29/29 38/38/38
f 29/29/29 39/39/39 38/38/38
f 29/29/29 30/30/30 39/39/39
f 30/30/30 40/40/40 39/39/39
f 31/31/31 32/32/32 41/41/41
f 32/32/32 42/42/42 41/41/41
f 32/32/32 33/33/33 42/42/42
f 33/33/33 43/43/43 42/42/42
f 33/33/33 34/34/34 43/43/43
f 34/34/34 44/44/44 43/43/43
f 34/34/34 35/35/35 44/44/44
f 35/35/35 45/45/45 44/44/44
f 35/35/35 36/36/36 45/45/45
f 36/36/36 46/46/46 45/45/45
f 36/36/36 37/37/37 46/46/46
f 37/37/37 47/47/47 46/46/46
f 37/37/37 38/38/38 47/47/47
f 38/38/38 48/48/48 47/47/47
f 38/38/38 39/39/39 48/48/48
f 39/39/39 49/49/49 48/48/48
f 39/39/39 40/40/40 49/49/49
f 40/40/40 50/50/50 49/49/49
f 41/41/41 42/42/42 51/51/51
f 42/42/42 52/52/52 51/51/51
f 42/42/42 43/43/43 52/52/52
f 43/43/43 53/53/53 52/52/52
f 43/43/43 44/44/44 53/53/53
f 44/44/44 54/54/54 53/53/53
f 44/44/44 45/45/45 54/54/54
f 45/45/45 55/55/55 54/54/54
f 45/45/45 46/46/46 55/55/55
f 46/46/46 56/56/56 55/55/55
f 46/46/46 47/47/47 56/56/56
f 47/47/47 57/57/57 56/56/56
f 47/47/47 48/48/48 57/57/57
f 48/48/48 58/58/58 57/57/57
f 48/48/48 49/49/49 58/58/58
f 49/49/49 59/59/59 58/58/58
f 49/49/49 50/50/50 59/59/59
f 50/50/50 60/60/60 59/59/59
f 51/51/51 52/52/52 61/61/61
f 52/52/52 62/62/62 61/61/61
f 52/52/52 53/53/53 62/62/62
f 53/53/53 63/63/63 62/62/62
f 53/53/53 54/54/54 63/63/63
f 54/54/54 64/64/64 63/63/63
f 54/54/54 55/55/55 64/64/64
f 55/55/55 65/65/65 64/64/64
f 55/55/55 56/56/56 65/65/65
f 56/56/56 66/66/66 65/65/65
f 56/56/56 57/57/57 66/66/66
f 57/57/57 67/67/67 66/66/66
f 57/57/57 58/58/58 67/67/67
f 58/58/58 68/68/68 67/67/67
f 58/58/58 59/59/59 68/68/68
f 59/59/59 69/69/69 68/68/68
f 59/59/59 60/60/60 69/69/69
f 60/60/60 70/70/70 69/69/69
f 61/61/61 62/62/62 71/71/71
f 62/62/62 72/72/72 71/71/71
f 62/62/62 63/63/63 72/72/72
f 63/63/63 73/73/73 72/72/72
f 63/63/63 64/64/64 73/73/73
f 64/64/64 74/74/74 73/73/73
f 64/64/64 65/65/65 74/74/74
f 65/65/65 75/75/75 74/74/74
f 65/65/65 66/66/66 75/75/75
f 66/66/66 76/76/76 75/75/75
f 66/66/66 67/67/67 76/76/76
f 67/67/67 77/77/77 76/76/76
f 67/67/67 68/68/68 77/77/77
f 68/68/68 78/78/78 77/77/77
f 68/68/68 69/69/69 78/78/78
f 69/69/69 79/79/79 78/78/78
f 69/69/69 70/70/70 79/79/79
f 70/70/70 80/80/80 79/79/79
f 71/71/71 72/72/72 81/81/81
f 72/72/72 82/82/82 81/81/81
f 72/72/72 73/73/73 82/82/82
f 73/73/73 83/83/83 82/82/82
f 73/73/73 74/74/74 83/83/83
f 74/74/74 84/84/84 83/83/83
f 74/74/74 75/75/75 84/84/84
f 75/75/75 85/85/85 84/84/84
f 75/75/75 76/76/76 85/85/85
f 76/76/76 86/86/86 85/85/85
f 76/76/76 77/77/77 86/86/86
f 77/77/77 87/87/87 86/86/86
f 77/77/77 78/78/78 87/87/87
f 78/78/78 88/88/88 87/87/87
f 78/78/78 79/79/79 88/88/88
f 79/79/79 89/89/89 88/88/88
f 79/79/79 80/80/80 89/89/89
f 80/80/80 90/90/90 89/89/89
f 81/81/81 82/82/82 91/91/91
f 82/82/82 92/92/92 91/91/91
f 82/82/82 83/83/83 92/92/92
f 83/83/83 93/93/93 92/92/92
f 83/83/83 84/84/84 93/93/93
f 84/84/84 94/94/94 93/93/93
f 84/84/84 85/85/85 94/94/94
f 85/85/85 95/95/95 94/94/94
f 85/85/85 86/86/86 95/95/95
f 86/86/86 96/96/96 95/95/95
f 86/86/86 87/87/87 96/96/96
f 87/87/87 97/97/97 96/96/96
f 87/87/87 88/88/88 97/97/97
f 88/88/88 98/98/98 97/97/97
f 88/88/88 89/89/89 98/98/98
f 89/89/89 99/99/99 98/98/98
f 89/89/89 90/90/90 99/99/99
f 90/90/90 100/100/100 99/99/99
