# 3ds Max Wavefront OBJ Exporter v0.97b - (c)2007 guruware
# File Created: 12.12.2010 23:42:04

#
# object Box01
#

v  -2000.0 -50.1640 -2000.0
v  2000.0 -50.1640 -2000.0
v  2000.0 2000.0 -2000.0
v  -2000.0 2000.0 -2000.0
v  -2000.0 -50.1642 2000.0
v  -2000.0 2000.0 2000.0
v  2000.0 2000.0 2000.0
v  2000.0 -50.1642 2000.0
# 8 vertices

vn 0.0000 -0.0000 1.0000
vn 0.0000 0.0000 -1.0000
vn -1.0000 0.0000 -0.0000
vn 0.0000 -1.0000 -0.0000
vn 1.0000 0.0000 -0.0000
# 5 vertex normals

vt 0.2545 0.9976 0.0000
vt 0.7463 0.9963 0.0000
vt 0.7467 0.7471 0.0000
vt 0.2543 0.7469 0.0000
vt 0.2541 0.0042 0.0000
vt 0.2541 0.2537 0.0000
vt 0.7466 0.2542 0.0000
vt 0.7470 0.0051 0.0000
vt 0.9945 0.7471 0.0000
vt 0.9945 0.2549 0.0000
vt 0.7467 0.2542 0.0000
vt 0.2542 0.7469 0.0000
vt 0.0029 0.2533 0.0000
vt 0.0043 0.7465 0.0000
# 14 texture coords

g Box01
f 1/1/1 2/2/1 3/3/1 
f 3/3/1 4/4/1 1/1/1 
f 5/5/2 6/6/2 7/7/2 
f 7/7/2 8/8/2 5/5/2 
f 2/9/3 8/10/3 7/7/3 
f 7/7/3 3/3/3 2/9/3 
f 3/3/4 7/11/4 6/6/4 
f 6/6/4 4/12/4 3/3/4 
f 4/4/5 6/6/5 5/13/5 
f 5/13/5 1/14/5 4/4/5 
# 10 faces

