# Blender3D v249 OBJ File: transparent_white_cyclinder.blend
# www.blender3d.org
v 0.877655 -50.052006 -0.121938
v 1.002018 -50.052006 0.029598
v 1.094428 -50.052006 0.202485
v 1.151334 -50.052006 0.390078
v 1.170548 -50.052006 0.585168
v 1.151334 -50.052006 0.780259
v 1.094428 -50.052006 0.967852
v 1.002018 -50.052006 1.140738
v 0.877655 -50.052006 1.292275
v 0.726119 -50.052006 1.416638
v 0.553232 -50.052006 1.509048
v 0.365638 -50.052006 1.565954
v 0.170548 -50.052006 1.585168
v -0.024542 -50.052006 1.565953
v -0.212135 -50.052006 1.509048
v -0.385022 -50.052006 1.416638
v -0.536559 -50.052006 1.292275
v -0.660922 -50.052006 1.140738
v -0.753331 -50.052006 0.967851
v -0.810237 -50.052006 0.780258
v -0.829452 -50.052006 0.585167
v -0.810237 -50.052006 0.390077
v -0.753331 -50.052006 0.202484
v -0.660921 -50.052006 0.029597
v -0.536557 -50.052006 -0.121939
v -0.385021 -50.052006 -0.246302
v -0.212134 -50.052006 -0.338712
v -0.024540 -50.052006 -0.395617
v 0.170550 -50.052006 -0.414832
v 0.365640 -50.052006 -0.395617
v 0.553234 -50.052006 -0.338710
v 0.726120 -50.052006 -0.246300
v 0.877657 49.947994 -0.121941
v 1.002019 49.947994 0.029595
v 1.094429 49.947994 0.202483
v 1.151334 49.947994 0.390076
v 1.170548 49.947994 0.585166
v 1.151333 49.947994 0.780256
v 1.094427 49.947994 0.967849
v 1.002017 49.947994 1.140735
v 0.877655 49.947994 1.292271
v 0.726118 49.947994 1.416634
v 0.553232 49.947994 1.509044
v 0.365639 49.947994 1.565949
v 0.170549 49.947994 1.585164
v -0.024541 49.947994 1.565950
v -0.212133 49.947994 1.509044
v -0.385020 49.947994 1.416635
v -0.536556 49.947994 1.292273
v -0.660920 49.947994 1.140737
v -0.753330 49.947994 0.967851
v -0.810236 49.947994 0.780258
v -0.829452 49.947994 0.585168
v -0.810238 49.947994 0.390078
v -0.753333 49.947994 0.202485
v -0.660924 49.947994 0.029598
v -0.536562 49.947994 -0.121939
v -0.385027 49.947994 -0.246302
v -0.212141 49.947994 -0.338713
v -0.024549 49.947994 -0.395620
v 0.170541 49.947994 -0.414836
v 0.365631 49.947994 -0.395623
v 0.553224 49.947994 -0.338719
v 0.726112 49.947994 -0.246310
vt 0.774754 0.036632
vt 0.744533 0.067884
vt 0.759086 0.069484
vt 0.773248 0.033754
vt 0.755296 0.070573
vt 0.776628 0.010095
vt 0.776085 0.004715
vt 0.768961 0.029754
vt 0.748270 0.069669
vt 0.766281 0.063538
vt 0.772562 0.073013
vt 0.763678 0.056179
vt 0.742775 0.064827
vt 0.765164 0.011525
vt 0.740855 0.061110
vt 0.757673 0.030209
vt 0.739592 0.056684
vt 0.754864 0.032110
vt 0.739039 0.051699
vt 0.752270 0.034640
vt 0.739228 0.046327
vt 0.742454 0.068527
vt 0.740165 0.040763
vt 0.748106 0.041218
vt 0.741828 0.035213
vt 0.746705 0.045032
vt 0.744169 0.029892
vt 0.745844 0.049011
vt 0.747107 0.025016
vt 0.745568 0.053002
vt 0.750536 0.020788
vt 0.745894 0.056846
vt 0.754324 0.017392
vt 0.746818 0.060386
vt 0.758320 0.014981
vt 0.748309 0.063474
vt 0.762358 0.013667
vt 0.750311 0.065979
vt 0.768936 0.006846
vt 0.752745 0.067793
vt 0.769886 0.014537
vt 0.755511 0.068839
vt 0.748698 0.022443
vt 0.758493 0.069073
vt 0.775645 0.019878
vt 0.761569 0.068487
vt 0.748820 0.057286
vt 0.764610 0.067110
vt 0.778701 0.028760
vt 0.764668 0.060923
vt 0.779058 0.034069
vt 0.770103 0.062264
vt 0.778621 0.039664
vt 0.772339 0.059007
vt 0.777421 0.045319
vt 0.774118 0.055368
vt 0.775519 0.050812
vt 0.775378 0.051494
vt 0.771088 0.051104
vt 0.776079 0.047537
vt 0.769976 0.060511
vt 0.776203 0.043648
vt 0.771055 0.012697
vt 0.775753 0.039969
vn 0.634394 -0.000000 -0.773010
vn 0.634391 -0.000000 -0.773012
vn 0.471389 -0.000000 -0.881925
vn 0.471398 -0.000000 -0.881920
vn 0.290277 -0.000000 -0.956943
vn 0.290286 -0.000000 -0.956940
vn 0.098010 -0.000000 -0.995185
vn 0.098019 -0.000000 -0.995185
vn -0.098024 -0.000000 -0.995184
vn -0.098016 -0.000000 -0.995185
vn -0.290291 -0.000000 -0.956938
vn -0.290283 -0.000000 -0.956941
vn -0.471402 -0.000000 -0.881918
vn -0.471395 -0.000000 -0.881922
vn -0.634398 -0.000000 -0.773007
vn -0.634392 -0.000000 -0.773011
vn -0.773014 -0.000000 -0.634389
vn -0.773009 -0.000000 -0.634395
vn -0.881924 -0.000000 -0.471392
vn -0.881921 -0.000000 -0.471397
vn -0.956942 -0.000000 -0.290279
vn -0.956940 -0.000000 -0.290286
vn -0.995185 0.000000 -0.098013
vn -0.995185 -0.000000 -0.098018
vn -0.995184 0.000000 0.098022
vn -0.995185 -0.000000 0.098017
vn -0.956939 0.000000 0.290288
vn -0.956941 0.000000 0.290283
vn -0.881920 0.000000 0.471399
vn -0.881922 0.000000 0.471396
vn -0.773008 0.000000 0.634396
vn -0.773011 0.000000 0.634393
vn -0.634392 0.000000 0.773012
vn -0.634393 0.000000 0.773010
vn -0.471395 0.000000 0.881922
vn -0.471397 0.000000 0.881921
vn -0.290284 0.000000 0.956941
vn -0.290285 0.000000 0.956940
vn -0.098016 0.000000 0.995185
vn -0.098018 0.000000 0.995185
vn 0.098018 0.000000 0.995185
vn 0.098017 0.000000 0.995185
vn 0.290285 0.000000 0.956940
vn 0.471397 0.000000 0.881921
vn 0.634393 0.000000 0.773011
vn 0.773010 0.000000 0.634394
vn 0.773011 0.000000 0.634393
vn 0.881921 0.000000 0.471397
vn 0.956940 0.000000 0.290287
vn 0.956940 0.000000 0.290285
vn 0.995184 0.000000 0.098019
vn 0.995185 0.000000 0.098017
vn 0.995185 -0.000000 -0.098015
vn 0.995185 -0.000000 -0.098017
vn 0.956941 -0.000000 -0.290283
vn 0.956940 -0.000000 -0.290285
vn 0.881922 -0.000000 -0.471395
vn 0.881921 -0.000000 -0.471397
vn 0.773012 -0.000000 -0.634392
vn 0.773010 -0.000000 -0.634393
usemtl None_textures.png
s off
f 33/1/1 1/2/1 32/3/1
f 33/1/2 32/3/2 64/4/2
f 31/5/3 63/6/3 64/4/3
f 31/5/4 64/4/4 32/3/4
f 30/7/5 62/8/5 63/6/5
f 30/7/6 63/6/6 31/5/6
f 29/9/7 61/10/7 62/8/7
f 29/9/8 62/8/8 30/7/8
f 28/11/9 60/12/9 61/10/9
f 28/11/10 61/10/10 29/9/10
f 27/13/11 59/14/11 60/12/11
f 27/13/12 60/12/12 28/11/12
f 26/15/13 58/16/13 59/14/13
f 26/15/14 59/14/14 27/13/14
f 25/17/15 57/18/15 58/16/15
f 25/17/16 58/16/16 26/15/16
f 24/19/17 56/20/17 57/18/17
f 24/19/18 57/18/18 25/17/18
f 23/21/19 55/22/19 56/20/19
f 23/21/20 56/20/20 24/19/20
f 22/23/21 54/24/21 55/22/21
f 22/23/22 55/22/22 23/21/22
f 21/25/23 53/26/23 54/24/23
f 21/25/24 54/24/24 22/23/24
f 20/27/25 52/28/25 53/26/25
f 20/27/26 53/26/26 21/25/26
f 19/29/27 51/30/27 52/28/27
f 19/29/28 52/28/28 20/27/28
f 18/31/29 50/32/29 51/30/29
f 18/31/30 51/30/30 19/29/30
f 17/33/31 49/34/31 50/32/31
f 17/33/32 50/32/32 18/31/32
f 16/35/33 48/36/33 49/34/33
f 16/35/34 49/34/34 17/33/34
f 15/37/35 47/38/35 48/36/35
f 15/37/36 48/36/36 16/35/36
f 14/39/37 46/40/37 47/38/37
f 14/39/38 47/38/38 15/37/38
f 13/41/39 45/42/39 46/40/39
f 13/41/40 46/40/40 14/39/40
f 12/43/41 44/44/41 45/42/41
f 12/43/42 45/42/42 13/41/42
f 11/45/43 43/46/43 44/44/43
f 11/45/43 44/44/43 12/43/43
f 10/47/44 42/48/44 43/46/44
f 10/47/44 43/46/44 11/45/44
f 9/49/45 41/50/45 42/48/45
f 9/49/45 42/48/45 10/47/45
f 8/51/46 40/52/46 41/50/46
f 8/51/47 41/50/47 9/49/47
f 7/53/48 39/54/48 40/52/48
f 7/53/48 40/52/48 8/51/48
f 6/55/49 38/56/49 39/54/49
f 6/55/50 39/54/50 7/53/50
f 5/57/51 37/58/51 38/56/51
f 5/57/52 38/56/52 6/55/52
f 4/59/53 36/60/53 37/58/53
f 4/59/54 37/58/54 5/57/54
f 3/61/55 35/62/55 36/60/55
f 3/61/56 36/60/56 4/59/56
f 2/63/57 34/64/57 35/62/57
f 2/63/58 35/62/58 3/61/58
f 1/2/59 33/1/59 34/64/59
f 1/2/60 34/64/60 2/63/60
