# Blender v2.58 (sub 1) OBJ File: 'transparent_white_cyclinder.blend'
# www.blender.org
mtllib transparent_white_cyclinder.mtl
o Tube.001
v 0.707107 -50.000000 -0.707107
v 0.831470 -50.000000 -0.555570
v 0.923880 -50.000000 -0.382683
v 0.980785 -50.000000 -0.195090
v 1.000000 -50.000000 -0.000000
v 0.980785 -50.000000 0.195090
v 0.923880 -50.000000 0.382683
v 0.831470 -50.000000 0.555570
v 0.707107 -50.000000 0.707107
v 0.555570 -50.000000 0.831470
v 0.382683 -50.000000 0.923880
v 0.195090 -50.000000 0.980785
v -0.000000 -50.000000 1.000000
v -0.195091 -50.000000 0.980785
v -0.382684 -50.000000 0.923879
v -0.555571 -50.000000 0.831469
v -0.707107 -50.000000 0.707106
v -0.831470 -50.000000 0.555570
v -0.923880 -50.000000 0.382683
v -0.980785 -50.000000 0.195089
v -1.000000 -50.000000 -0.000001
v -0.980785 -50.000000 -0.195091
v -0.923879 -50.000000 -0.382684
v -0.831469 -50.000000 -0.555571
v -0.707106 -50.000000 -0.707108
v -0.555569 -50.000000 -0.831470
v -0.382682 -50.000000 -0.923880
v -0.195089 -50.000000 -0.980786
v 0.000001 -50.000000 -1.000000
v 0.195092 -50.000000 -0.980785
v 0.382685 -50.000000 -0.923879
v 0.555572 -50.000000 -0.831469
v 0.707108 50.000000 -0.707105
v 0.831471 50.000000 -0.555569
v 0.923880 50.000000 -0.382682
v 0.980786 50.000000 -0.195088
v 1.000000 50.000000 0.000002
v 0.980785 50.000000 0.195092
v 0.923879 50.000000 0.382685
v 0.831469 50.000000 0.555571
v 0.707106 50.000000 0.707107
v 0.555570 50.000000 0.831470
v 0.382683 50.000000 0.923880
v 0.195091 50.000000 0.980785
v 0.000001 50.000000 1.000000
v -0.195089 50.000000 0.980786
v -0.382682 50.000000 0.923880
v -0.555568 50.000000 0.831471
v -0.707105 50.000000 0.707108
v -0.831468 50.000000 0.555573
v -0.923878 50.000000 0.382686
v -0.980784 50.000000 0.195094
v -1.000000 50.000000 0.000004
v -0.980786 50.000000 -0.195086
v -0.923882 50.000000 -0.382679
v -0.831473 50.000000 -0.555566
v -0.707111 50.000000 -0.707103
v -0.555575 50.000000 -0.831466
v -0.382689 50.000000 -0.923877
v -0.195097 50.000000 -0.980784
v -0.000007 50.000000 -1.000000
v 0.195083 50.000000 -0.980787
v 0.382676 50.000000 -0.923883
v 0.555563 50.000000 -0.831474
vt 0.734204 0.003693
vt 0.734204 0.083061
vt 0.734204 0.083061
vt 0.734204 0.003693
vt 0.734204 0.083061
vt 0.734204 0.003693
vt 0.734204 0.083061
vt 0.734204 0.003693
vt 0.734204 0.083061
vt 0.734204 0.003693
vt 0.734204 0.083061
vt 0.734204 0.003693
vt 0.734204 0.083061
vt 0.734204 0.003693
vt 0.734204 0.083061
vt 0.734204 0.003693
vt 0.734204 0.083061
vt 0.734204 0.003693
vt 0.734204 0.083061
vt 0.734204 0.003693
vt 0.734204 0.083061
vt 0.734204 0.003693
vt 0.734204 0.083061
vt 0.734204 0.003693
vt 0.734204 0.083061
vt 0.734204 0.003693
vt 0.734204 0.083061
vt 0.734204 0.003693
vt 0.734204 0.083061
vt 0.734204 0.003693
vt 0.734204 0.083061
vt 0.734204 0.003693
vt 0.734204 0.083061
vt 0.734204 0.003693
vt 0.734204 0.083061
vt 0.734204 0.003693
vt 0.734204 0.083061
vt 0.734204 0.003693
vt 0.734204 0.083061
vt 0.734204 0.003693
vt 0.734204 0.083061
vt 0.734204 0.003693
vt 0.734204 0.083061
vt 0.734204 0.003693
vt 0.734204 0.083061
vt 0.734204 0.003693
vt 0.734204 0.083061
vt 0.734204 0.003693
vt 0.734204 0.083061
vt 0.734204 0.003693
vt 0.734204 0.083061
vt 0.734204 0.003693
vt 0.734204 0.083061
vt 0.734204 0.003693
vt 0.734204 0.083061
vt 0.734204 0.003693
vt 0.734204 0.083061
vt 0.734204 0.003693
vt 0.734204 0.083061
vt 0.734204 0.003693
vt 0.734204 0.083061
vt 0.734204 0.003693
vt 0.734204 0.083061
vt 0.734204 0.003693
vn 0.773011 0.000000 -0.634393
vn 0.881922 0.000000 -0.471395
vn 0.956940 0.000000 -0.290285
vn 0.995185 -0.000000 -0.098015
vn 0.995185 0.000000 0.098018
vn 0.956940 -0.000000 0.290285
vn 0.881921 -0.000000 0.471398
vn 0.773011 0.000000 0.634393
vn 0.634393 0.000000 0.773011
vn 0.471396 0.000000 0.881921
vn 0.290285 0.000000 0.956940
vn 0.098017 0.000000 0.995185
vn -0.098017 -0.000000 0.995185
vn -0.290284 -0.000000 0.956941
vn -0.471397 0.000000 0.881921
vn -0.634392 0.000000 0.773011
vn -0.773010 0.000000 0.634394
vn -0.881921 -0.000000 0.471397
vn -0.956940 0.000000 0.290286
vn -0.995185 0.000000 0.098019
vn -0.995185 0.000000 -0.098016
vn -0.956941 0.000000 -0.290283
vn -0.881922 -0.000000 -0.471395
vn -0.773012 -0.000000 -0.634392
vn -0.634395 -0.000000 -0.773009
vn -0.471399 -0.000000 -0.881920
vn -0.290287 0.000000 -0.956940
vn -0.098020 0.000000 -0.995184
vn 0.098014 -0.000000 -0.995185
vn 0.290281 0.000000 -0.956941
vn 0.471394 0.000000 -0.881923
vn 0.634393 0.000000 -0.773011
usemtl None_textures.png
s off
f 1/1/1 33/2/1 34/3/1
f 1/1/1 34/3/1 2/4/1
f 2/4/2 34/3/2 35/5/2
f 2/4/2 35/5/2 3/6/2
f 3/6/3 35/5/3 36/7/3
f 3/6/3 36/7/3 4/8/3
f 4/8/4 36/7/4 37/9/4
f 4/8/4 37/9/4 5/10/4
f 5/10/5 37/9/5 38/11/5
f 5/10/5 38/11/5 6/12/5
f 6/12/6 38/11/6 39/13/6
f 6/12/6 39/13/6 7/14/6
f 7/14/7 39/13/7 40/15/7
f 7/14/7 40/15/7 8/16/7
f 8/16/8 40/15/8 41/17/8
f 8/16/8 41/17/8 9/18/8
f 9/18/9 41/17/9 42/19/9
f 9/18/9 42/19/9 10/20/9
f 10/20/10 42/19/10 43/21/10
f 10/20/10 43/21/10 11/22/10
f 11/22/11 43/21/11 44/23/11
f 11/22/11 44/23/11 12/24/11
f 12/24/12 44/23/12 45/25/12
f 12/24/12 45/25/12 13/26/12
f 13/26/13 45/25/13 46/27/13
f 13/26/13 46/27/13 14/28/13
f 14/28/14 46/27/14 47/29/14
f 14/28/14 47/29/14 15/30/14
f 15/30/15 47/29/15 48/31/15
f 15/30/15 48/31/15 16/32/15
f 16/32/16 48/31/16 49/33/16
f 16/32/16 49/33/16 17/34/16
f 17/34/17 49/33/17 50/35/17
f 17/34/17 50/35/17 18/36/17
f 18/36/18 50/35/18 51/37/18
f 18/36/18 51/37/18 19/38/18
f 19/38/19 51/37/19 52/39/19
f 19/38/19 52/39/19 20/40/19
f 20/40/20 52/39/20 53/41/20
f 20/40/20 53/41/20 21/42/20
f 21/42/21 53/41/21 54/43/21
f 21/42/21 54/43/21 22/44/21
f 22/44/22 54/43/22 55/45/22
f 22/44/22 55/45/22 23/46/22
f 23/46/23 55/45/23 56/47/23
f 23/46/23 56/47/23 24/48/23
f 24/48/24 56/47/24 57/49/24
f 24/48/24 57/49/24 25/50/24
f 25/50/25 57/49/25 58/51/25
f 25/50/25 58/51/25 26/52/25
f 26/52/26 58/51/26 59/53/26
f 26/52/26 59/53/26 27/54/26
f 27/54/27 59/53/27 60/55/27
f 27/54/27 60/55/27 28/56/27
f 28/56/28 60/55/28 61/57/28
f 28/56/28 61/57/28 29/58/28
f 29/58/29 61/57/29 62/59/29
f 29/58/29 62/59/29 30/60/29
f 30/60/30 62/59/30 63/61/30
f 30/60/30 63/61/30 31/62/30
f 31/62/31 63/61/31 64/63/31
f 31/62/31 64/63/31 32/64/31
f 33/2/32 1/1/32 32/64/32
f 33/2/32 32/64/32 64/63/32
